<?xml version="1.0" standalone="no"?>
<svg xmlns:xlink="http://www.w3.org/1999/xlink" id="wave" style="transform:rotate(180deg); transition: 0.3s" viewBox="0 0 1440 100" version="1.1" xmlns="http://www.w3.org/2000/svg"><defs><linearGradient id="sw-gradient-0" x1="0" x2="0" y1="1" y2="0"><stop stop-color="rgba(255, 249, 234, 1)" offset="0%"/><stop stop-color="rgba(255, 249, 234, 1)" offset="100%"/></linearGradient></defs><path style="transform:translate(0, 0px); opacity:1" fill="url(#sw-gradient-0)" d="M0,50L30,43.3C60,37,120,23,180,20C240,17,300,23,360,31.7C420,40,480,50,540,46.7C600,43,660,27,720,16.7C780,7,840,3,900,15C960,27,1020,53,1080,60C1140,67,1200,53,1260,50C1320,47,1380,53,1440,61.7C1500,70,1560,80,1620,85C1680,90,1740,90,1800,90C1860,90,1920,90,1980,78.3C2040,67,2100,43,2160,28.3C2220,13,2280,7,2340,11.7C2400,17,2460,33,2520,41.7C2580,50,2640,50,2700,46.7C2760,43,2820,37,2880,38.3C2940,40,3000,50,3060,53.3C3120,57,3180,53,3240,48.3C3300,43,3360,37,3420,35C3480,33,3540,37,3600,40C3660,43,3720,47,3780,43.3C3840,40,3900,30,3960,28.3C4020,27,4080,33,4140,35C4200,37,4260,33,4290,31.7L4320,30L4320,100L4290,100C4260,100,4200,100,4140,100C4080,100,4020,100,3960,100C3900,100,3840,100,3780,100C3720,100,3660,100,3600,100C3540,100,3480,100,3420,100C3360,100,3300,100,3240,100C3180,100,3120,100,3060,100C3000,100,2940,100,2880,100C2820,100,2760,100,2700,100C2640,100,2580,100,2520,100C2460,100,2400,100,2340,100C2280,100,2220,100,2160,100C2100,100,2040,100,1980,100C1920,100,1860,100,1800,100C1740,100,1680,100,1620,100C1560,100,1500,100,1440,100C1380,100,1320,100,1260,100C1200,100,1140,100,1080,100C1020,100,960,100,900,100C840,100,780,100,720,100C660,100,600,100,540,100C480,100,420,100,360,100C300,100,240,100,180,100C120,100,60,100,30,100L0,100Z"/></svg>